<svg width="40" height="40" viewBox="0 0 40 40" fill="none" xmlns="http://www.w3.org/2000/svg">
<g id="telegram">
<rect id="Rectangle 52" width="40" height="40" rx="20" fill="white"/>
<rect id="Rectangle 53" x="8.33203" y="10" width="21.6667" height="20" fill="#111111"/>
<path id="Vector" fill-rule="evenodd" clip-rule="evenodd" d="M20 4C11.1635 4 4 11.1635 4 20C4 28.8365 11.1635 36 20 36C28.8365 36 36 28.8365 36 20C36 11.1635 28.8365 4 20 4ZM26.2681 13.0701C28.2408 13.1279 29.1713 14.4072 29.0573 16.908C28.9719 18.7769 27.6667 21.3355 25.1415 24.5837C22.5311 27.9755 20.3224 29.6721 18.5164 29.6721C17.3967 29.6721 16.4497 28.6397 15.6759 26.5733C15.4753 25.8378 15.2749 25.1023 15.0743 24.3669C14.7585 23.2083 14.4427 22.0497 14.1265 20.8911C13.5517 18.8258 12.9358 17.7921 12.2765 17.7921C12.1328 17.7921 11.6302 18.0943 10.7695 18.6961L9.86667 17.5328C10.8143 16.7005 11.7489 15.8681 12.6683 15.0345C13.9321 13.9429 14.8815 13.3684 15.5139 13.3106C17.0075 13.1669 17.9272 14.188 18.2724 16.374C18.6455 18.7329 18.9038 20.1997 19.0486 20.7738C19.4799 22.7308 19.9539 23.7083 20.4714 23.7083C20.8728 23.7083 21.4768 23.0737 22.2819 21.8037C23.0853 20.5347 23.5162 19.5689 23.5742 18.9051C23.6891 17.8098 23.2583 17.2607 22.2819 17.2607C21.8222 17.2607 21.3481 17.3665 20.8606 17.5755C21.8045 14.4854 23.6072 12.9845 26.2681 13.0701Z" fill="white"/>
</g>
</svg>
