<svg width="40" height="40" viewBox="0 0 40 40" fill="none" xmlns="http://www.w3.org/2000/svg">
<g id="telegram">
<rect id="Rectangle 52" width="40" height="40" rx="20" fill="white"/>
<rect id="Rectangle 53" x="8.33203" y="10" width="21.6667" height="20" fill="#111111"/>
<path id="Vector" fill-rule="evenodd" clip-rule="evenodd" d="M3.33203 19.9997C3.33203 29.2044 10.794 36.6663 19.9987 36.6663C29.2034 36.6663 36.6654 29.2044 36.6654 19.9997C36.6654 10.795 29.2034 3.33301 19.9987 3.33301C10.794 3.33301 3.33203 10.795 3.33203 19.9997ZM16.9431 27.6386L17.2267 23.3902L17.2265 23.39L24.9549 16.4156C25.294 16.1146 24.8808 15.9678 24.4306 16.2409L14.8927 22.2582L10.7728 20.9724C9.88307 20.7 9.87668 20.0886 10.9725 19.649L27.0267 13.4586C27.7599 13.1257 28.4677 13.6347 28.1877 14.757L25.4537 27.6407C25.2628 28.5563 24.7096 28.7752 23.9431 28.3523L19.7783 25.2753L17.7765 27.2219C17.7702 27.228 17.7639 27.2341 17.7577 27.2402C17.5338 27.4582 17.3485 27.6386 16.9431 27.6386Z" fill="white"/>
</g>
</svg>
