<svg width="40" height="40" viewBox="0 0 40 40" fill="none" xmlns="http://www.w3.org/2000/svg">
<g id="youtube">
<rect id="Rectangle 52" width="40" height="40" rx="20" fill="white"/>
<path id="Youtube" fill-rule="evenodd" clip-rule="evenodd" d="M17.935 23.0288L17.9344 17.3696L23.3381 20.2089L17.935 23.0288ZM29.8 16.3889C29.8 16.3889 29.6044 15.001 29.005 14.3898C28.2444 13.5873 27.3919 13.5835 27.0012 13.5369C24.2025 13.333 20.0044 13.333 20.0044 13.333H19.9956C19.9956 13.333 15.7975 13.333 12.9988 13.5369C12.6075 13.5835 11.7556 13.5873 10.9944 14.3898C10.395 15.001 10.2 16.3889 10.2 16.3889C10.2 16.3889 10 18.0191 10 19.6487V21.177C10 22.8073 10.2 24.4369 10.2 24.4369C10.2 24.4369 10.395 25.8248 10.9944 26.4359C11.7556 27.2385 12.755 27.2133 13.2 27.297C14.8 27.4518 20 27.4997 20 27.4997C20 27.4997 24.2025 27.4934 27.0012 27.2894C27.3919 27.2422 28.2444 27.2385 29.005 26.4359C29.6044 25.8248 29.8 24.4369 29.8 24.4369C29.8 24.4369 30 22.8073 30 21.177V19.6487C30 18.0191 29.8 16.3889 29.8 16.3889Z" fill="#111111"/>
</g>
</svg>
