<svg width="244" height="77" viewBox="0 0 244 77" fill="none" xmlns="http://www.w3.org/2000/svg">
<g id="LOGO">
<path id="Vector" d="M35.9248 61.8764L11.3104 30.8068V61.8764H0V11.6255H9.7477L34.2903 42.6951V11.6255H45.6725V61.8764H35.9248Z" fill="black"/>
<path id="Vector_2" d="M52.3574 44.1122C52.3574 33.4953 60.3963 25.7119 71.2089 25.7119C81.5238 25.7119 90.5582 32.7192 90.2041 46.6623H62.8159C63.17 50.2719 65.9463 53.4577 71.7785 53.4577C74.9089 53.4577 77.7544 52.041 78.6089 50.1315H89.8499C87.574 57.4911 80.1765 62.6579 71.2114 62.6579C60.1833 62.6554 52.3574 54.8695 52.3574 44.1122ZM63.1007 39.8669H78.3241C77.1848 35.6192 73.7003 34.2049 70.9266 34.2049C66.657 34.2049 64.0245 36.6811 63.1007 39.8669Z" fill="black"/>
<path id="Vector_3" d="M99.8769 48.9229V35.7583H92.7617V26.4867H99.8769V16.6484H110.618V26.4867H120.578V35.7583H110.618V46.7276C110.618 50.9728 112.396 52.7444 116.665 52.7444C118.302 52.7444 119.439 52.6039 120.578 52.1062V61.5897C118.941 62.085 117.022 62.2968 114.176 62.2968C106.281 62.2993 99.8769 57.9826 99.8769 48.9229Z" fill="black"/>
<path id="Vector_4" d="M124.703 44.1837C124.703 33.9216 132.598 25.7119 143.413 25.7119C153.515 25.7119 159.845 32.0121 161.767 40.2907H150.67C149.318 37.4597 147.183 35.3359 143.413 35.3359C138.862 35.3359 135.518 38.5906 135.518 44.1837C135.518 49.7767 138.862 53.0315 143.413 53.0315C147.183 53.0315 149.318 50.9076 150.67 48.0766H161.767C159.848 56.3577 153.515 62.6579 143.413 62.6579C132.601 62.6554 124.703 54.4457 124.703 44.1837Z" fill="black"/>
<path id="Vector_5" d="M167.955 8.79248H178.698V61.8744H167.955V8.79248Z" fill="black"/>
<path id="Vector_6" d="M198.261 26.4888H187.518V61.8776H198.261V26.4888Z" fill="black"/>
<path id="Vector_7" d="M207.08 76.6676V26.4856H217.823V30.0238C219.176 28.0428 222.804 25.707 227.497 25.707C236.816 25.707 244 34.2 244 44.1788C244 54.1575 236.816 62.6505 227.497 62.6505C222.801 62.6505 219.173 60.3148 217.823 58.3338V76.6651H207.08V76.6676ZM233.188 44.1812C233.188 39.0859 229.916 35.4049 225.077 35.4049C220.24 35.4049 216.966 39.0859 216.966 44.1812C216.966 49.2766 220.24 52.9576 225.077 52.9576C229.916 52.9576 233.188 49.2766 233.188 44.1812Z" fill="black"/>
<path id="Vector_8" d="M204.328 10.9249L195.923 16.3848L187.518 21.8473V10.9249V0L195.923 5.46244L204.328 10.9249Z" fill="#05E5AF"/>
</g>
</svg>
